<?xml version="1.0" encoding="UTF-8" standalone="no"?>
<!-- Created with Inkscape (http://www.inkscape.org/) -->

<svg
   width="210mm"
   height="297mm"
   viewBox="0 0 210 297"
   version="1.1"
   id="svg5"
   inkscape:version="1.2 (dc2aedaf03, 2022-05-15)"
   sodipodi:docname="logo.svg"
   xmlns:inkscape="http://www.inkscape.org/namespaces/inkscape"
   xmlns:sodipodi="http://sodipodi.sourceforge.net/DTD/sodipodi-0.dtd"
   xmlns="http://www.w3.org/2000/svg"
   xmlns:svg="http://www.w3.org/2000/svg">
  <sodipodi:namedview
     id="namedview7"
     pagecolor="#ffffff"
     bordercolor="#000000"
     borderopacity="0.25"
     inkscape:showpageshadow="2"
     inkscape:pageopacity="0.0"
     inkscape:pagecheckerboard="0"
     inkscape:deskcolor="#d1d1d1"
     inkscape:document-units="mm"
     showgrid="false"
     inkscape:zoom="0.52724989"
     inkscape:cx="295.87488"
     inkscape:cy="189.66339"
     inkscape:window-width="1920"
     inkscape:window-height="1017"
     inkscape:window-x="-8"
     inkscape:window-y="-8"
     inkscape:window-maximized="1"
     inkscape:current-layer="layer1" />
  <defs
     id="defs2" />
  <g
     inkscape:label="Layer 1"
     inkscape:groupmode="layer"
     id="layer1">
    <path
       style="fill:#ff6600;stroke-width:0.639084"
       d="m 117.63209,69.986729 c -0.14285,0.571394 -0.12357,1.210307 -0.42854,1.71418 -2.44793,4.044406 -10.49862,14.351482 -12.64211,16.713285 -14.449437,15.921146 -15.67087,16.374416 -34.069386,28.498296 -5.891988,3.88258 -11.935057,7.53394 -17.998927,11.1422 -3.076339,1.83054 -6.515027,3.06183 -9.428009,5.14254 -0.05809,0.0416 -0.05048,0.26478 0,0.21425 0.112922,-0.1128 0.06928,-0.36161 0.214274,-0.42855 2.673848,-1.23407 5.403363,-2.34657 8.142373,-3.42835 5.761494,-2.27556 11.596929,-4.36105 17.356102,-6.64247 9.026294,-3.57563 17.968367,-7.36171 26.998391,-10.92792 10.683682,-4.21928 21.396012,-8.36703 32.140932,-12.427824 5.29838,-2.002395 49.96889,-18.377509 57.85369,-21.427294 6.54386,-2.531116 12.99922,-5.285394 19.49883,-7.928093"
       id="path982" />
    <text
       xml:space="preserve"
       style="font-size:18.8406px;fill:#1a1a1a;stroke:#ffffff;stroke-width:1.57005"
       x="56.887897"
       y="91.765129"
       id="text128"><tspan
         sodipodi:role="line"
         style="font-style:normal;font-variant:normal;font-weight:bold;font-stretch:normal;font-family:'BIZ UDPMincho';-inkscape-font-specification:'BIZ UDPMincho';fill:#1a1a1a;stroke:#ffffff;stroke-width:1.57005"
         x="56.887897"
         y="91.765129"
         id="tspan130">CHESS</tspan><tspan
         sodipodi:role="line"
         style="font-style:normal;font-variant:normal;font-weight:bold;font-stretch:normal;font-family:'BIZ UDPMincho';-inkscape-font-specification:'BIZ UDPMincho';fill:#1a1a1a;stroke:#ffffff;stroke-width:1.57005"
         x="56.887897"
         y="117.05962"
         id="tspan134">CONQUEST</tspan></text>
    <path
       style="fill:#000000;stroke-width:0.639084"
       d="m 31.722929,73.922657 c -0.719789,0.122439 -1.963888,-0.437774 -2.727245,-0.15152 -0.200626,0.07524 -0.270807,0.344294 -0.454542,0.454537 -0.08662,0.05196 -0.213912,-0.04756 -0.303029,0 -2.091631,1.115542 -4.068993,2.577432 -5.606012,4.393903 -0.280633,0.33166 -0.479433,0.726838 -0.757571,1.060601 -0.228622,0.274345 -0.577624,0.44909 -0.757565,0.757564 -0.185264,0.317594 -0.177365,0.715052 -0.303029,1.0606 -0.0772,0.212269 -0.231616,0.39178 -0.303029,0.606051 -0.08145,0.24431 -0.07007,0.513262 -0.15152,0.757572 -0.121642,0.364893 -0.323097,0.69912 -0.454543,1.0606 -0.626707,1.723453 0.310793,3.348827 1.060601,4.848438 0.432538,0.865085 0.855331,1.623654 1.666649,2.272709 0.05126,0.04097 0.40332,0.110531 0.454544,0.151521 0.223091,0.178477 0.363785,0.454634 0.606056,0.606058 0.176569,0.110361 0.425255,0.04819 0.606051,0.151521 2.241388,1.280789 -2.183575,-0.568921 1.363629,0.909077 0.259361,0.824095 0.825424,0.148356 1.212109,0.303029 0.271561,0.108622 0.463427,0.381004 0.757572,0.454542 0.834339,0.208574 1.914429,0.792965 2.727244,0.90908 1.019502,0.145651 2.326079,0 3.333303,0 0.995035,0 2.225973,0.1671 3.181794,-0.15152 0.386282,-0.128767 0.696405,-0.423956 1.060593,-0.606051 1.071146,-0.535573 2.272146,-0.833049 3.33331,-1.36363 0.335065,-0.167534 0.534505,-0.781759 0.757564,-1.060593 0.178477,-0.22309 0.49995,-0.340792 0.606058,-0.606058 0.0563,-0.140675 -0.03674,-0.307553 0,-0.454542 0.01739,-0.0693 0.111907,-0.09208 0.15152,-0.151521 0.335527,-0.503293 0.517723,-0.896824 0.606059,-1.515138 0.07688,-0.538128 -0.106594,-1.133769 0,-1.666651 0.0721,-0.360541 0.223259,-0.701671 0.303021,-1.060593 0.264793,-1.191549 -0.529041,-2.49371 -0.757564,-3.636339 -0.15152,-0.757564 0.303029,0.303029 0,-0.909077 -0.108381,-0.433468 -0.581785,-0.953459 -0.757571,-1.363623 -0.756659,-1.765544 -1.629113,-3.6063 -3.181789,-4.848445 -0.07886,-0.06309 -0.207197,0.03196 -0.303029,0 -1.097475,-0.365826 0.238887,0.04372 -0.454543,-0.303029 -0.202027,-0.101014 -0.555551,0.101014 -0.757564,0 -0.127777,-0.06391 -0.188742,-0.217317 -0.303029,-0.303029 -0.5138,-0.385342 -0.08913,0.0713 -0.757571,-0.151521 -0.172753,-0.05758 -0.291667,-0.221592 -0.454543,-0.303021 -0.282821,-0.141424 -0.777767,0.1414 -1.060595,0 -0.191665,-0.09582 -0.283121,-0.325978 -0.454543,-0.454543 -0.193162,-0.144878 -1.580354,-0.05944 -1.818164,0 -0.309879,0.07746 -0.606058,0.202028 -0.909087,0.303029 z"
       id="path478" />
    <path
       style="fill:#000000;stroke-width:0.639084"
       d="m 23.692701,113.31625 c -0.224563,-0.91707 0.248496,-1.25457 0.606051,-1.96968 0.172028,-0.34403 0.252957,-0.73302 0.454545,-1.0606 0.206738,-0.33593 0.531365,-0.58593 0.757571,-0.90908 0.376886,-0.53841 0.276665,-0.77073 0.606051,-1.36363 0.274295,-0.49373 0.736122,-0.90935 1.060601,-1.36362 0.413557,-0.57898 0.821921,-1.23289 1.212106,-1.81817 0.250573,-0.37585 0.355485,-0.83625 0.606058,-1.2121 0.07925,-0.11887 0.239153,-0.17527 0.303029,-0.30303 0.04519,-0.0903 -0.03751,-0.20925 0,-0.30303 0.251315,-0.6283 0.770704,-1.19008 1.060593,-1.81817 0.202028,-0.45454 0.404036,-0.90908 0.606059,-1.363617 0,-0.202027 -0.06391,-0.41441 0,-0.606058 0.06775,-0.203283 0.386779,-0.251264 0.454542,-0.454542 0.03196,-0.09582 -0.02773,-0.205917 0,-0.303029 0.107076,-0.374749 0.365992,-1.003531 0.606051,-1.363623 0.03961,-0.05944 0.101013,-0.101013 0.15152,-0.15152 0,-0.151521 -0.06775,-0.319024 0,-0.454542 0.09582,-0.191641 0.344302,-0.2708 0.454545,-0.454543 0.360053,-0.600089 -0.447731,-0.0068 0.151521,-0.606051 0.03572,-0.03572 0.115796,0.03572 0.15152,0 0.03572,-0.03572 -0.02799,-0.109492 0,-0.15152 0.118864,-0.178284 0.38678,-0.251262 0.454542,-0.454543 0.04792,-0.143742 -0.107124,-0.347405 0,-0.454542 0.01836,-0.01836 0.430161,-0.01618 0.454536,0 0.610787,0.407193 0.782119,1.244843 1.212116,1.818165 0.381813,0.50909 0.981806,0.854541 1.363622,1.363629 0.485805,0.647739 0.565167,1.453803 0.909085,1.96968 0.353364,0.530046 0.47551,0.355466 0.757566,1.060596 0.03751,0.0938 -0.05196,0.21642 0,0.30303 0.127439,0.21241 0.80232,1.36566 0.909085,1.51513 0.709806,0.99374 -0.179781,-0.8141 0.757566,1.0606 0.121642,0.24326 0.172801,0.5188 0.303027,0.75757 0.451509,0.82776 0.656541,0.75753 1.060601,1.36363 0.142849,0.21427 -0.117004,0.67506 0,0.90908 0.06391,0.12777 0.22379,0.18417 0.303029,0.30302 0.118598,0.1779 -0.110531,0.57337 0,0.75758 0.147172,0.24527 0.668229,1.05093 0.757566,1.36362 0.05546,0.19425 -0.05548,0.41181 0,0.60606 0.595901,2.08564 0.06628,-1.03224 0.454542,0.90908 0.06705,0.33527 -0.15082,0.91048 0,1.21211 0.06391,0.12778 0.239153,0.17526 0.303029,0.30302 0.150193,0.30041 0,0.88017 0,1.21212 0,0.0349 0.01739,0.44871 0,0.45454 -0.618992,0.20633 -1.595444,0 -2.272709,0 -1.515135,0 -3.030281,0 -4.545416,0 -1.482083,0 -3.079681,0.18321 -4.545411,0 -0.777407,-0.0972 -1.49411,-0.15152 -2.272707,-0.15152 -1.8313,0 -3.817333,0.20623 -5.606012,-0.15152 z"
       id="path480" />
    <path
       style="fill:#ff0000;stroke-width:0.639084"
       d="m 33.851383,72.879414 c -0.441492,0.195651 -1.613485,-0.211061 -2.035588,0 -0.159709,0.07986 -0.25915,0.26494 -0.428552,0.321408 -0.445985,0.148647 -1.786583,-0.0713 -2.356996,0 -1.077434,0.134685 0.260618,0.05502 -0.535689,0.214274 -1.018485,0.203694 -0.208839,-0.260382 -1.178498,0.321408 -0.09186,0.05514 -0.221931,-0.03981 -0.321408,0 -0.706447,0.282578 -1.439482,1.424656 -1.821324,2.035588 -0.09464,0.151424 -0.248885,0.26538 -0.321409,0.428553 -0.07396,0.166399 -0.04321,0.365178 -0.107149,0.535681 -0.167776,0.447417 -0.646089,0.756497 -0.857089,1.178498 -0.06584,0.13169 -0.04915,0.293206 -0.107125,0.428545 -0.321633,0.750485 -0.08297,-0.04031 -0.428545,0.535682 -0.144661,0.241085 -0.417995,0.806569 -0.535682,1.071369 -0.394833,0.888365 -0.662219,1.820452 -0.74996,2.785548 -0.02461,0.270396 0.065,0.597073 0,0.85709 -0.0685,0.274053 -0.263675,0.56844 -0.321408,0.85709 -0.134758,0.673736 0,1.560531 0,2.249866 0,0.714939 -0.107753,1.549375 0,2.249869 0.118332,0.769233 0.604855,1.382188 0.964231,2.035588 0.269382,0.489796 0.474905,1.013282 0.749953,1.499914 0.190071,0.336287 0.46291,0.622391 0.642819,0.964227 0.179153,0.340369 0.23065,0.741542 0.428545,1.071361 0.192776,0.321302 1.637521,1.802157 2.142732,1.928458 1.080487,0.270124 2.313499,0.480675 3.428365,0.321411 0.889229,-0.127028 2.946593,-1.014804 3.749775,-1.392772 0.260517,-0.122584 0.473114,-0.349451 0.749953,-0.428552 0.149999,-0.04283 1.056064,0.0306 1.285642,0 0.326285,-0.04353 1.681306,-0.348027 2.035588,-0.428545 1.388648,-0.315599 3.202559,-0.500243 4.392598,-1.39277 0.161618,-0.121206 0.276513,-0.295519 0.428545,-0.428545 0.134371,-0.117583 0.314232,-0.184225 0.428545,-0.32141 0.195337,-0.234394 0.214274,-0.571399 0.321409,-0.857095 0.146762,-0.391383 0.310603,-0.777487 0.428545,-1.1785 0.171713,-0.583841 0.107124,-1.232974 0.107124,-1.821322 0,-0.928514 0,-1.857029 0,-2.785541 0,-1.233652 0.186955,-4.580969 -0.535682,-5.78537 -0.229466,-0.382449 -0.746143,-0.671546 -0.964224,-1.071369 -0.168429,-0.308775 -0.244208,-0.664676 -0.428545,-0.964227 -0.105869,-0.172051 -0.304519,-0.26908 -0.428545,-0.428545 -0.127849,-0.16437 -0.186907,-0.376714 -0.32141,-0.535681 -0.213453,-0.252259 -0.997381,-1.038519 -1.392777,-1.285643 -0.09577,-0.05983 -0.22565,-0.04729 -0.321408,-0.107124 -0.387823,-0.242387 -0.69084,-0.603406 -1.071364,-0.85709 -1.962335,-1.308222 0.708094,0.645398 -1.821321,-0.964227 -0.06737,-0.04287 -0.05068,-0.157801 -0.107149,-0.214274 -0.05048,-0.05048 -0.144975,0.01739 -0.214274,0 -0.109564,-0.02741 -0.216544,-0.06519 -0.32141,-0.107149 -0.683123,-0.273246 -0.987891,-0.964234 -1.821322,-0.964234 -0.107125,0 -0.273495,-0.09582 -0.321408,0 -0.06585,0.131714 -0.07143,0.285703 -0.107125,0.428553 z"
       id="path556" />
    <path
       style="fill:#ff0000;stroke-width:0.639084"
       d="m 23.459148,113.37699 c 0.464078,-0.55689 0.66541,-0.67397 0.85709,-1.39277 0.07418,-0.2782 0.0046,-0.58804 0.107149,-0.85709 0.187703,-0.49274 0.500959,-0.92799 0.749953,-1.39278 0.715245,-1.33511 1.532398,-2.74061 2.035595,-4.17832 0.247793,-0.70798 0.09411,-1.35366 0.32141,-2.03559 0.05048,-0.15152 0.154951,-0.28026 0.214274,-0.42855 0.02652,-0.0663 -0.03196,-0.15038 0,-0.21427 0.145289,-0.29058 0.436335,-0.52593 0.535682,-0.85709 0.186617,-0.62203 -0.194564,-0.60427 0.214274,-1.28564 0.48058,-0.800964 1.113976,-1.422481 1.714187,-2.142729 0.260669,-0.312807 0.471465,-0.667179 0.749953,-0.964232 0.25964,-0.276949 0.598778,-0.471767 0.857097,-0.749955 0.209032,-0.225119 0.380888,-0.484593 0.535682,-0.749953 0.291565,-0.499859 0.289321,-1.080523 1.071344,-0.857088 1.542937,0.440835 2.450802,1.97062 3.32123,3.214093 0.3602,0.514566 0.389261,0.453028 0.749953,1.071364 0.777729,1.33325 -0.152921,-0.08505 0.642824,1.39277 0.365033,0.67793 0.550343,0.64782 0.85709,1.39278 0.141955,0.34476 0.197317,0.71977 0.32141,1.07136 0.239225,0.67784 0.586819,1.32867 0.749953,2.03559 0.499936,2.1664 -0.291558,-0.78511 0.107125,1.60705 0.02626,0.15753 0.16838,0.27557 0.214274,0.42854 0.205216,0.68405 0.311152,1.43834 0.428545,2.14273 0.164974,0.98986 0.01836,0.0861 0.321408,1.07137 0.14012,0.45539 0.170747,0.94076 0.321415,1.39278 0.075,0.22497 0.246414,0.41783 0.321408,0.64281 0.05355,0.1607 -0.107124,0.10713 0,0.32141 0.04519,0.0903 0.186521,0.11715 0.214274,0.21428 0.04908,0.17169 0,0.35712 0,0.53568 0,0.0357 0.03387,0.0958 0,0.10715 -0.535317,0.17842 -2.306426,0 -2.999822,0 -2.394587,0 -4.793233,0.0519 -7.17814,-0.10715 -1.769626,-0.11797 -3.578571,0 -5.356825,0 -0.377098,0 -2.118626,0.13623 -2.357003,0 -0.223598,-0.12776 -0.428545,-0.2857 -0.642819,-0.42855 z"
       id="path684" />
    <path
       style="fill:#000000;stroke-width:0.639084"
       d="m 9.4504021,88.240708 c -0.007,6.4e-4 -1.235812,0.134153 -1.287872,0.15152 -0.193138,0.06437 -0.340275,0.22995 -0.530295,0.303029 -0.597097,0.22966 -0.286136,-0.03367 -0.833327,0.07575 -0.52324,0.104661 -0.279346,0.193695 -0.757571,0.454545 -0.140193,0.07647 -0.307747,0.0886 -0.454538,0.151521 -0.130096,0.05572 -0.412427,0.403953 -0.454542,0.5303 -0.02391,0.07186 0.02391,0.155409 0,0.227269 -0.271624,0.814863 -0.0478,-0.05592 -0.227269,0.303026 -0.101545,0.203115 0.197873,0.476062 0.227269,0.681816 0.106472,0.745301 -0.243998,-0.27744 0.15152,0.90908 0.05534,0.166062 0.255245,0.339169 0.303029,0.5303 0.07971,0.318826 0.176569,0.386741 0.303022,0.681814 0.118912,0.277471 -0.01087,0.415475 0.227269,0.606058 0.184539,0.147632 0.598292,0.499866 0.757571,0.606051 0.631244,0.42083 1.441158,0.591734 2.121196,0.909085 0.184492,0.08609 0.338568,0.234539 0.530298,0.303029 0.5385009,0.192317 1.1222589,-0.01498 1.6666509,0.07575 0.13413,0.02246 0.245436,0.12483 0.378787,0.15152 0.274819,0.05495 1.690004,0.03725 1.96968,0 0.330196,-0.04403 1.064147,-0.232003 1.287865,-0.5303 0.259578,-0.346108 0.394866,-0.805803 0.5303,-1.212114 0.535542,-1.606615 0.196085,-2.289045 -0.757571,-3.560573 -0.215409,-0.287213 -0.440917,-0.719094 -0.757572,-0.90908 -0.971243,-0.582749 0.642652,0.519858 -0.757566,-0.5303 -0.185965,-0.139468 -0.353261,0.0128 -0.530298,-0.07575 -0.08142,-0.0407 -0.140893,-0.122728 -0.227269,-0.15152 -0.193138,-0.06437 -0.423955,0.01522 -0.606051,-0.07575 -0.06391,-0.03196 -0.09027,-0.114758 -0.15152,-0.151521 -0.193694,-0.116207 -0.404036,-0.202027 -0.606058,-0.303029 -0.02295,-0.01159 -0.527757,-0.149975 -0.530301,-0.151521 -0.09186,-0.05514 -0.141568,-0.162993 -0.227268,-0.227268 -0.17326,-0.129951 -0.7423299,0.21966 -0.7575639,0.227268 z"
       id="path686" />
    <path
       style="fill:#800080;stroke-width:0.639084"
       d="m 6.4201211,101.42242 c 0.270959,-0.76571 0.602959,-1.480924 0.984843,-2.196955 0.07971,-0.149467 0.119999,-0.323435 0.227268,-0.454542 0.124879,-0.152656 0.32187,-0.232849 0.454538,-0.378787 0.380485,-0.418531 0.701683,-1.171124 0.984842,-1.666651 0.08937,-0.1564 0.14384,-0.405147 0.227269,-0.530301 0.03961,-0.05944 0.119564,-0.08763 0.151521,-0.15152 0.04659,-0.09311 0.0292,-0.209902 0.07575,-0.303022 0.09398,-0.18797 0.435972,-0.416915 0.6060529,-0.5303 0.08831,-0.05886 0.224419,0.148646 0.227269,0.15152 0.487909,0.487905 0.127245,0.536909 0.454542,1.060593 0.05681,0.09085 0.187487,0.127801 0.227269,0.227269 0.06633,0.165796 0.02671,0.358611 0.07575,0.5303 0.150651,0.527298 0.604184,1.274771 0.681814,1.818167 0.0215,0.149999 -0.04159,0.308858 0,0.454543 0.04652,0.162873 0.186182,0.290203 0.227269,0.454542 0.08775,0.350964 -0.008,0.773954 0.07575,1.136354 0.01787,0.0778 0.286169,0.4714 0.15152,0.60605 -0.01667,0.0167 -1.262246,0 -1.515138,0 -0.7828219,0 -1.5656419,0 -2.3484639,0 -0.235602,0 -0.606346,0.0756 -0.833322,0 -0.259047,-0.0864 -0.05638,-0.0628 -0.303029,-0.22726 -0.0756,-0.0504 -0.790639,0 -0.83333,0 z"
       id="path688" />
    <path
       style="fill:#800080;stroke-width:0.639084"
       d="m 9.0716151,88.467981 c -0.403888,-0.106231 -0.902918,-0.01957 -1.287865,0.151521 -0.309599,0.137607 -0.598695,0.318751 -0.909087,0.454542 -0.07611,0.03329 -0.362673,0.05964 -0.454542,0.151521 -0.01787,0.01787 0.01135,0.05316 0,0.07575 -0.0407,0.08142 -0.09324,0.157318 -0.151521,0.227269 -0.0686,0.08229 -0.174104,0.13425 -0.227268,0.227268 -0.05164,0.09039 -0.04283,0.20425 -0.07575,0.303022 -0.01787,0.05355 -0.05048,0.101014 -0.07575,0.151521 -0.05048,0.05048 -0.124975,0.08519 -0.15152,0.15152 -0.02812,0.07034 0.01642,0.153332 0,0.227269 -0.05196,0.233863 -0.211351,0.442777 -0.227269,0.681814 -0.03024,0.453532 0,0.90908 0,1.363622 0,0.183259 -0.08068,0.769702 0,0.984842 0.05169,0.137874 0.161424,0.247085 0.227269,0.37878 0.150602,0.301239 0.141738,0.49418 0.378779,0.757571 0.131932,0.146594 0.315082,0.239322 0.454545,0.378787 0.06437,0.06437 0.07867,0.172632 0.151521,0.227269 0.04039,0.03029 0.108211,-0.02601 0.15152,0 0.479059,0.287435 0.210119,0.39477 0.984845,0.606051 0.09744,0.02659 0.205892,-0.02773 0.303022,0 0.08756,0.025 0.151521,0.101014 0.227269,0.151521 0.101013,0.02524 0.20094,0.05534 0.303029,0.07575 0.339154,0.06782 0.723129,-0.075 1.0606,0 1.2818309,0.284853 -0.792416,0.04302 0.6818069,0.227268 0.251908,0.0315 2.213197,0.05075 2.348467,0 0.520943,-0.195336 0.868553,-0.658705 1.287864,-0.984835 0.156086,-0.1214 0.504781,-0.17623 0.606058,-0.378787 0.05642,-0.112922 -0.01908,-0.253991 0,-0.378784 0.03541,-0.230119 0.108598,-0.452985 0.151521,-0.681816 0.04232,-0.22582 0.182969,-0.868312 0.07575,-1.136351 -0.03382,-0.08454 -0.115651,-0.143574 -0.151521,-0.227269 -0.124298,-0.290003 -0.301302,-0.907353 -0.5303,-1.136351 -0.03995,-0.03995 -0.106328,-0.04186 -0.15152,-0.07575 -0.197463,-0.148091 -0.337667,-0.376198 -0.530293,-0.5303 -0.04411,-0.03529 -0.111594,-0.03585 -0.151521,-0.07575 -0.242206,-0.242208 0.158284,-0.08961 -0.227269,-0.378787 -0.04039,-0.03029 -0.104612,0.01884 -0.15152,0 -0.314674,-0.125868 -0.473941,-0.464237 -0.757572,-0.60605 -0.02246,-0.01135 -0.05048,0 -0.07575,0 -0.101014,-0.05048 -0.206182,-0.09341 -0.303029,-0.151521 -0.344442,-0.206665 -0.672408,-0.476663 -1.060593,-0.606058 -0.04792,-0.01594 -0.106352,0.02246 -0.151521,0 -0.187631,0.04198 -0.190095,-0.170796 -0.303026,-0.227269 -0.178501,-0.08925 -0.4793589,0.04053 -0.6818089,0 -0.233597,-0.04671 -0.40784,-0.246636 -0.606058,-0.378784 z"
       id="path753" />
    <path
       style="fill:#008000;stroke-width:0.639084"
       d="m 17.63215,100.2103 c -0.689497,-0.11357 -1.143006,0.19766 -1.742417,0.45454 -0.315693,0.13532 -0.677627,0.14942 -0.984835,0.30303 -0.05048,0.0252 -0.03164,0.11623 -0.07575,0.15152 -0.08819,0.0706 -0.216279,0.0792 -0.303029,0.15152 -0.229685,0.19143 -0.213815,0.51968 -0.303029,0.75757 -0.05949,0.15862 -0.178598,0.29229 -0.227269,0.45454 -0.05138,0.17128 0.03452,0.35773 0,0.5303 -0.165724,0.82868 -0.227269,1.12224 -0.227269,1.96968 0,0.29545 -0.08891,1.21983 0.07575,1.43938 0.204612,0.27283 0.469516,0.4922 0.681814,0.75758 0.05688,0.0711 0.08157,0.16898 0.15152,0.22726 0.269348,0.22445 0.689188,0.28208 0.984843,0.45454 0.529916,0.30913 0.969396,0.67796 1.590893,0.83333 0.366464,0.0916 1.171617,0 1.515138,0 0.336848,0 0.810265,0.0652 1.136351,0 0.110748,-0.0222 0.197294,-0.11186 0.303027,-0.15152 0.363934,-0.13647 0.785615,-0.12766 1.136358,-0.30303 0.13169,-0.0658 0.247083,-0.16142 0.378787,-0.22727 0.02246,-0.0114 0.05048,0 0.07575,0 0.101014,-0.0505 0.223187,-0.0717 0.303027,-0.15152 1.199039,-1.19903 0.984845,-2.21395 0.984845,-3.78784 0,-0.45327 0.09855,-1.14747 0,-1.5909 -0.06775,-0.30491 -0.192776,-0.59864 -0.227269,-0.90908 -0.01401,-0.12548 0.02473,-0.25497 0,-0.37878 -0.04927,-0.24648 -0.322374,-0.84622 -0.5303,-0.98485 -0.08406,-0.056 -0.203984,0.0198 -0.303029,0 -0.360746,-0.0722 0.03246,-0.0541 -0.227269,-0.227266 -0.115796,-0.0772 -0.39969,0.05222 -0.530295,0 -0.08454,-0.03382 -0.145845,-0.110796 -0.227269,-0.151496 -0.115651,-0.05783 -0.856317,0 -1.060601,0 -0.959586,0 -1.91917,0 -2.878757,0"
       id="path881" />
    <path
       style="fill:#008000;stroke-width:0.639084"
       d="m 15.056411,114.07382 c 0.486293,-1.09566 0.910633,-2.19232 1.590894,-3.18179 0.154757,-0.2251 0.326004,-0.44081 0.454544,-0.68182 0.198622,-0.37244 0.241803,-0.67766 0.454543,-1.06059 0.03471,-0.0624 0.108646,-0.0944 0.15152,-0.15152 0.03387,-0.0452 0.05048,-0.10102 0.07575,-0.15152 0.101014,-0.15152 0.186448,-0.31466 0.303029,-0.45455 0.01618,-0.0193 0.06447,0.0225 0.07575,0 0.02246,-0.0452 -0.02246,-0.10632 0,-0.15152 0.01522,-0.0303 0.242674,-0.27285 0.303029,-0.30303 0.349917,-0.17495 0.842,0.64765 0.984842,0.83333 1.156209,1.6187 -0.231447,-0.26258 0.681809,0.83333 0.138115,0.16575 0.122487,0.41745 0.227269,0.60605 0.433388,0.7801 0.04283,-0.55325 0.454542,0.68182 0.04857,0.14572 0.03164,0.30741 0.07575,0.45454 0.0487,0.16224 0.186182,0.2902 0.227269,0.45454 0.08029,0.32112 0,0.72526 0,1.0606 0,0.0582 0.08324,0.67433 0,0.75757 -0.05355,0.0536 -0.151521,0 -0.227269,0 -0.202027,0 -0.404035,0 -0.606058,0 -0.883829,0 -1.767658,0 -2.651486,0 -0.392234,0 -0.91151,-0.0941 -1.287872,0 -0.109564,0.0273 -0.195892,0.11579 -0.303029,0.15152 -0.113646,0.0379 -0.07575,-0.0757 -0.227269,0 -0.06391,0.032 -0.09437,0.10865 -0.15152,0.15152 -0.165096,0.12382 -0.43263,0.12261 -0.606058,0.15152 z"
       id="path883" />
  </g>
</svg>
